<svg aria-hidden="true" style="width:0;height:0;position:absolute;overflow:hidden" xmlns="http://www.w3.org/2000/svg"><defs><symbol id="icon-send" viewBox="0 0 32 32"><path fill="none" stroke="currentColor" style="stroke:var(--color1,currentColor)" stroke-linejoin="round" stroke-linecap="round" stroke-miterlimit="10" stroke-width="2" d="M27.333 29.333H4.666M25.333 4.667 6.666 23.334M25.333 18.36V4.667H11.64"/></symbol><symbol id="icon-binance_logo" viewBox="0 0 127 32"><path fill="#f0b90b" style="fill:var(--color16,#f0b90b)" d="m19.244 22.4-2.159 2.123-2.157-2.123 2.157-2.123 2.159 2.123zm5.234-5.155 3.696 3.64 2.157-2.123L24.478 13l-5.853 5.762 2.157 2.123 3.696-3.64zm7.394 3.032L29.715 22.4l2.157 2.123 2.155-2.123-2.155-2.123zm-7.394 7.279-3.696-3.639-2.157 2.121 5.853 5.762 5.853-5.762-2.157-2.121-3.696 3.639zm0-3.033 2.157-2.123-2.157-2.123-2.157 2.123 2.157 2.123zm22.762.204v-.029c0-1.385-.746-2.077-1.961-2.533.746-.413 1.377-1.062 1.377-2.224v-.029c0-1.62-1.317-2.667-3.457-2.667H38.34v10.311h4.982c2.364 0 3.922-.942 3.922-2.828h-.004zm-2.873-4.408c0 .766-.644 1.091-1.66 1.091h-2.121v-2.177h2.274c.972 0 1.511.382 1.511 1.06l-.004.026zm.584 4.125c0 .766-.614 1.119-1.633 1.119h-2.733v-2.265h2.662c1.183 0 1.707.428 1.707 1.12l-.004.026zm7.131 3.112V17.245H49.77v10.311h2.312zm12.387 0V17.245h-2.282v6.349l-4.907-6.349h-2.125v10.311h2.274v-6.555l5.071 6.555h1.968zm12.764 0-4.497-10.385h-2.125l-4.487 10.385h2.35l.961-2.312h4.43l.957 2.312h2.412zm-4.189-4.317h-2.791l1.392-3.343 1.399 3.343zm15.173 4.317V17.245h-2.282v6.349l-4.909-6.349h-2.123v10.311h2.273v-6.555l5.073 6.555h1.969zm11.894-1.664-1.465-1.458c-.823.735-1.556 1.207-2.754 1.207-1.794 0-3.038-1.469-3.038-3.24v-.029c0-1.767 1.273-3.211 3.038-3.211 1.047 0 1.866.441 2.679 1.163l1.461-1.664c-.972-.942-2.153-1.591-4.129-1.591-3.217 0-5.461 2.401-5.461 5.326v.029c0 2.961 2.289 5.303 5.372 5.303 2.017.006 3.213-.702 4.289-1.835h.007zm9.832 1.664v-2.02h-5.694v-2.169h4.938v-2.02h-4.938v-2.083h5.612v-2.02h-7.902v10.311l7.983.002z"/></symbol><symbol id="icon-trust_wallet_logo" viewBox="0 0 123 32"><path fill="#3375bb" style="fill:var(--color14,#3375bb)" d="M45.61 19.398h-2.249v-1.305h6.125v1.305h-2.249v5.614h-1.626v-5.614zm5.416.999c.187-.257.438-.451.753-.583a2.883 2.883 0 0 1 1.104-.198v1.424a5.967 5.967 0 0 0-.351-.02c-.448 0-.8.125-1.054.376-.254.244-.382.613-.382 1.107v2.511H49.53v-5.318h1.496v.702zm7.668-.702v5.318h-1.486v-.633a2.118 2.118 0 0 1-.743.534 2.42 2.42 0 0 1-.934.178c-.71 0-1.272-.201-1.687-.603s-.623-.998-.623-1.789v-3.005h1.566v2.778c0 .857.365 1.285 1.094 1.285.375 0 .676-.119.904-.356.227-.244.341-.603.341-1.077v-2.629h1.567zm2.666 5.397c-.449 0-.887-.053-1.315-.158-.428-.112-.77-.25-1.025-.415l.522-1.107c.241.152.532.277.873.375.341.092.676.139 1.004.139.663 0 .994-.161.994-.484 0-.152-.09-.26-.271-.326s-.459-.122-.834-.168c-.441-.066-.807-.142-1.095-.227s-.539-.237-.753-.455c-.208-.218-.311-.527-.311-.929 0-.336.097-.632.291-.89.201-.264.488-.468.863-.613.382-.145.83-.218 1.345-.218.382 0 .76.043 1.135.129.382.079.696.191.944.336l-.522 1.097a3.161 3.161 0 0 0-1.557-.395c-.334 0-.585.046-.753.138s-.251.211-.251.356c0 .165.091.28.271.346.181.066.469.128.864.188.441.072.803.151 1.084.237.281.079.525.227.732.445s.312.521.312.909c0 .329-.1.623-.301.88s-.496.458-.884.603c-.382.139-.837.208-1.366.208zm6.399-.336a1.685 1.685 0 0 1-.572.257 3.005 3.005 0 0 1-.703.079c-.643 0-1.141-.162-1.496-.484-.348-.323-.522-.797-.522-1.423v-2.184h-.833v-1.186h.833V18.52h1.566v1.295h1.346v1.186h-1.346v2.165c0 .224.057.399.171.524.121.119.288.178.503.178.247 0 .458-.066.632-.198l.422 1.087zm13.251-6.663-2.299 6.919h-1.748l-1.546-4.685-1.596 4.685h-1.737l-2.309-6.919h1.687l1.586 4.863 1.657-4.863h1.506l1.607 4.903 1.636-4.903h1.557zm1.972 1.523c.837 0 1.48.198 1.928.593.448.389.673.978.673 1.769v3.035h-1.466v-.662c-.295.494-.843.741-1.647.741-.415 0-.776-.069-1.084-.208-.301-.138-.532-.329-.693-.573s-.241-.521-.241-.83c0-.494.187-.883.562-1.166.381-.283.967-.425 1.757-.425h1.245c0-.336-.104-.593-.312-.771-.207-.185-.519-.277-.933-.277-.288 0-.572.046-.854.139a2.203 2.203 0 0 0-.703.356l-.562-1.077a3.436 3.436 0 0 1 1.054-.474c.415-.112.84-.168 1.275-.168zm-.12 4.438c.268 0 .505-.059.713-.178.207-.125.355-.306.442-.544v-.544h-1.074c-.643 0-.964.208-.964.623 0 .198.077.356.231.474.161.112.378.168.652.168zm3.536-6.375h1.567v7.334h-1.567v-7.334zm2.417 0h1.567v7.334h-1.567v-7.334zm7.709 4.694c0 .02-.009.158-.03.415h-4.087c.073.329.247.59.521.781s.616.287 1.025.287c.281 0 .529-.04.743-.119.22-.086.425-.217.612-.395l.834.89c-.509.573-1.252.86-2.229.86-.609 0-1.148-.115-1.617-.346-.469-.237-.83-.563-1.084-.979s-.382-.886-.382-1.413c0-.521.124-.988.372-1.404a2.615 2.615 0 0 1 1.034-.978 3.074 3.074 0 0 1 1.476-.356c.529 0 1.007.112 1.436.336s.763.547 1.004.969c.248.415.372.9.372 1.453zm-2.801-1.591c-.355 0-.652.099-.894.297s-.388.468-.442.811h2.661a1.253 1.253 0 0 0-.442-.801 1.322 1.322 0 0 0-.884-.306zm6.726 3.974a1.685 1.685 0 0 1-.572.257c-.22.053-.455.079-.703.079-.642 0-1.141-.162-1.496-.484-.348-.323-.522-.797-.522-1.423v-2.184h-.834v-1.186h.834V18.52h1.566v1.295h1.345v1.186h-1.345v2.165c0 .224.057.399.171.524.12.119.287.178.502.178.248 0 .459-.066.633-.198l.421 1.087z"/><path fill="#fff" style="fill:var(--color15,#fff)" d="M31.91 11.312h-6.806c-3.842 0-6.956 3.066-6.956 6.848v6.699c0 3.782 3.114 6.848 6.956 6.848h6.806c3.842 0 6.956-3.066 6.956-6.848V18.16c0-3.782-3.114-6.848-6.956-6.848z"/><path fill="#fff" style="fill:var(--color15,#fff)" d="M18.94 21.656c0-5.234 4.31-9.477 9.627-9.477s9.627 4.243 9.627 9.477-4.31 9.477-9.627 9.477-9.627-4.243-9.627-9.477z"/><path fill="none" stroke="#3375bb" style="stroke:var(--color14,#3375bb)" stroke-linejoin="round" stroke-linecap="round" stroke-miterlimit="10" stroke-width="1.316" d="M28.572 15.993c1.943 1.597 4.171 1.499 4.807 1.499-.139 9.083-1.2 7.282-4.807 9.829-3.607-2.547-4.661-.746-4.8-9.829.63 0 2.858.099 4.8-1.499z"/></symbol><symbol id="icon-metamask_logo" viewBox="0 0 128 32"><path fill="#8f9ca9" style="fill:var(--color4,#8f9ca9)" d="M101.036 22.778c-.522-.35-1.09-.584-1.66-.887-.356-.187-.735-.373-1.044-.63-.521-.42-.426-1.261.143-1.634.782-.514 2.087-.233 2.229.817 0 .023.023.047.047.047h1.186c.023 0 .047-.023.047-.047-.071-.724-.356-1.331-.878-1.727a2.755 2.755 0 0 0-1.684-.56c-3.13 0-3.415 3.268-1.731 4.295.19.117 1.85.934 2.442 1.307.593.35.759 1.004.522 1.517-.238.467-.83.794-1.423.747-.664-.047-1.162-.397-1.352-.934a2.069 2.069 0 0 1-.047-.373c0-.023-.023-.047-.047-.047h-1.281c-.023 0-.047.023-.047.047 0 .91.237 1.424.854 1.891.593.444 1.233.63 1.921.63 1.754 0 2.655-.98 2.846-1.984.142-.98-.142-1.867-1.044-2.474zM45.144 18.342h-1.186c-.024 0-.047.023-.047.023l-1.067 3.432c-.024.047-.071.047-.095 0l-1.067-3.432c0-.023-.024-.023-.047-.023h-1.944a.05.05 0 0 0-.047.047v8.754c0 .023.024.047.047.047h1.281a.05.05 0 0 0 .047-.047V20.49c0-.047.071-.07.095-.023l1.067 3.455.071.233c0 .023.024.023.047.023h.996c.024 0 .047-.023.047-.023l.071-.233 1.067-3.455c.024-.047.095-.047.095.023v6.653c0 .023.024.047.047.047h1.28a.05.05 0 0 0 .047-.047v-8.754c0-.023-.024-.047-.047-.047h-.759zM81.33 18.342c-.024 0-.047.023-.047.023l-1.067 3.432c-.024.047-.071.047-.095 0l-1.067-3.432c0-.023-.024-.023-.047-.023h-1.969c-.023 0-.047.023-.047.047v8.754c0 .023.024.047.047.047h1.281a.05.05 0 0 0 .047-.047V20.49c0-.047.071-.07.095-.023l1.067 3.455.071.233c0 .023.023.023.047.023h.996c.024 0 .047-.023.047-.023l.071-.233 1.067-3.455c.024-.047.095-.047.095.023v6.653c0 .023.024.047.047.047h1.281a.05.05 0 0 0 .047-.047v-8.754c0-.023-.023-.047-.047-.047h-1.921zM64.731 18.342h-6.094a.05.05 0 0 0-.047.047v1.097c0 .023.024.047.047.047h2.348v7.61c0 .023.024.047.047.047h1.28c.024 0 .048-.023.048-.047v-7.61h2.347a.05.05 0 0 0 .047-.047v-1.097c.024-.023 0-.047-.023-.047zM72.319 27.189h1.162c.023 0 .047-.023.047-.07l-2.418-8.777c0-.023-.024-.023-.048-.023h-1.684c-.023 0-.047.023-.047.023l-2.418 8.777c0 .023.023.07.047.07h1.162c.024 0 .047-.023.047-.023l.711-2.568c0-.023.024-.023.047-.023h2.585c.023 0 .047.023.047.023l.711 2.568s.023.023.047.023zm-3.083-3.875.949-3.431c.023-.047.071-.047.095 0l.948 3.431c0 .023-.023.07-.047.07h-1.873c-.047 0-.071-.047-.071-.07zM92.286 27.189h1.162c.024 0 .047-.023.047-.07l-2.418-8.777c0-.023-.024-.023-.048-.023h-1.683c-.024 0-.048.023-.048.023l-2.418 8.777c0 .023.023.07.047.07h1.162c.024 0 .047-.023.047-.023l.711-2.568c0-.023.024-.023.047-.023h2.585c.023 0 .047.023.047.023l.711 2.568s.023.023.047.023zm-3.083-3.875.949-3.431c.023-.047.071-.047.095 0l.948 3.431c0 .023-.023.07-.047.07h-1.873c-.047 0-.071-.047-.071-.07zM51.167 25.882v-2.708c0-.023.024-.047.047-.047h3.438a.05.05 0 0 0 .047-.047v-1.097c0-.023-.024-.047-.047-.047h-3.438a.05.05 0 0 1-.047-.047v-2.311c0-.023.024-.047.047-.047h3.889a.05.05 0 0 0 .047-.047v-1.097c0-.023-.024-.047-.047-.047h-5.264a.05.05 0 0 0-.047.047v8.754c0 .023.024.047.047.047h5.43a.05.05 0 0 0 .047-.047v-1.144c0-.023-.024-.047-.047-.047H51.19c0-.023-.024-.047-.024-.07zM112.798 27.096l-4.458-4.529c-.024-.023-.024-.047 0-.07l4.007-4.109c.023-.023 0-.07-.024-.07h-1.636c-.024 0-.024 0-.024.023l-3.415 3.502c-.024.023-.071 0-.071-.023v-3.408c0-.023-.023-.047-.047-.047h-1.304a.05.05 0 0 0-.047.047v8.754c0 .023.023.047.047.047h1.281c.023 0 .047-.023.047-.047v-3.852c0-.047.047-.07.071-.023l3.866 3.945h1.636c.071-.047.095-.117.071-.14z"/><path fill="#e17726" style="fill:var(--color5,#e17726)" d="m30.844 13.627-7.778 5.696 1.447-3.361 6.331-2.334z"/><path fill="#e27625" style="fill:var(--color6,#e27625)" d="M12.869 13.627 20.6 19.37l-1.375-3.408-6.355-2.334zM28.046 26.816l-2.087 3.128 4.458 1.214 1.257-4.272-3.628-.07zM12.063 26.886l1.257 4.272 4.434-1.214-2.063-3.128-3.628.07z"/><path fill="#e27625" style="fill:var(--color6,#e27625)" d="m17.517 21.54-1.233 1.844 4.387.187-.142-4.669-3.012 2.638zM26.22 21.54l-3.059-2.685-.095 4.715 4.387-.187-1.233-1.844zM17.755 29.944l2.656-1.261-2.3-1.774-.356 3.035zM23.327 28.683l2.632 1.261-.356-3.035-2.277 1.774z"/><path fill="#d5bfb2" style="fill:var(--color7,#d5bfb2)" d="m25.959 29.944-2.632-1.261.213 1.681-.024.724 2.443-1.144zM17.755 29.944l2.466 1.144-.024-.724.213-1.681-2.656 1.261z"/><path fill="#233447" style="fill:var(--color8,#233447)" d="m20.268 25.789-2.205-.63 1.541-.7.664 1.331zM23.469 25.789l.64-1.331 1.565.7-2.205.63z"/><path fill="#cc6228" style="fill:var(--color9,#cc6228)" d="m17.754 29.944.379-3.128-2.442.07 2.063 3.058zM25.604 26.816l.356 3.128 2.087-3.058-2.442-.07zM27.453 23.384l-4.387.187.403 2.218.64-1.331 1.565.7 1.779-1.774zM18.063 25.158l1.541-.7.664 1.331.403-2.218-4.387-.187 1.779 1.774z"/><path fill="#e27525" style="fill:var(--color10,#e27525)" d="m16.284 23.384 1.826 3.525-.047-1.751-1.778-1.774zM25.675 25.159l-.071 1.751 1.85-3.525-1.778 1.774zM20.671 23.571l-.403 2.218.498 2.638.119-3.478-.213-1.377zM23.066 23.571l-.213 1.377.095 3.478.522-2.638-.403-2.218z"/><path fill="#f5841f" style="fill:var(--color11,#f5841f)" d="m23.47 25.789-.522 2.638.379.257 2.276-1.774.071-1.751-2.205.63zM18.063 25.159l.047 1.751 2.3 1.774.356-.257-.498-2.638-2.205-.63z"/><path fill="#c0ac9d" style="fill:var(--color12,#c0ac9d)" d="m23.517 31.088.024-.724-.213-.163h-2.94l-.19.163.024.724-2.466-1.144.854.7 1.755 1.19h2.988l1.755-1.19.854-.7-2.443 1.144z"/><path fill="#8f9ca9" style="fill:var(--color4,#8f9ca9)" d="m23.327 28.683-.379-.257h-2.182l-.356.257-.213 1.681.19-.163h2.941l.213.163-.213-1.681z"/><path fill="#763e1a" style="fill:var(--color13,#763e1a)" d="m31.176 19.696.664-3.151-.996-2.918-7.517 5.509 2.893 2.404 4.079 1.167.901-1.027-.379-.28.617-.56-.474-.374.617-.467-.403-.303zM11.897 16.545l.664 3.151-.427.303.617.467-.474.374.64.56-.403.28.901 1.027 4.102-1.167 2.893-2.404-7.541-5.509-.972 2.918z"/><path fill="#f5841f" style="fill:var(--color11,#f5841f)" d="M30.299 22.707 26.22 21.54l1.233 1.844-1.85 3.525 2.442-.023h3.628l-1.375-4.179zM17.517 21.54l-4.102 1.167-1.352 4.179h3.628l2.419.023-1.826-3.525 1.233-1.844zM23.066 23.571l.261-4.435 1.186-3.175h-5.288l1.186 3.175.261 4.435.095 1.401v3.455h2.182v-3.455l.119-1.401z"/></symbol><symbol id="icon-coinbase_logo" viewBox="0 0 133 32"><path fill="#0052ff" style="fill:var(--color3,#0052ff)" d="M42.397 19.519c-3.474 0-6.189 2.596-6.189 6.072s2.646 6.05 6.189 6.05 6.235-2.619 6.235-6.072c0-3.431-2.646-6.05-6.235-6.05zm.022 9.617c-1.979 0-3.429-1.513-3.429-3.544 0-2.055 1.426-3.567 3.405-3.567 2.002 0 3.451 1.535 3.451 3.567s-1.449 3.544-3.428 3.544zm6.972-6.976h1.726v9.256h2.761V19.745h-4.487v2.415zm-20.132-.135c1.45 0 2.6.88 3.037 2.19h2.922c-.53-2.799-2.876-4.695-5.936-4.695-3.474 0-6.189 2.596-6.189 6.072s2.646 6.05 6.189 6.05c2.991 0 5.384-1.896 5.913-4.719h-2.899c-.414 1.309-1.564 2.213-3.014 2.213-2.002 0-3.405-1.513-3.405-3.544-.001-2.054 1.38-3.567 3.382-3.567zm72.59 2.438-2.024-.293c-.966-.135-1.657-.451-1.657-1.197 0-.813.898-1.219 2.117-1.219 1.334 0 2.186.564 2.37 1.49h2.669c-.3-2.348-2.14-3.725-4.97-3.725-2.922 0-4.855 1.467-4.855 3.544 0 1.986 1.266 3.138 3.82 3.499l2.024.293c.99.135 1.542.52 1.542 1.242 0 .926-.966 1.309-2.3 1.309-1.634 0-2.554-.655-2.692-1.648h-2.715c.253 2.28 2.07 3.883 5.384 3.883 3.014 0 5.016-1.355 5.016-3.68 0-2.077-1.45-3.161-3.727-3.499zm-49.352-9.527c-1.012 0-1.772.722-1.772 1.715s.759 1.715 1.772 1.715c1.012 0 1.772-.722 1.772-1.715s-.76-1.715-1.772-1.715zm40.517 8.804c0-2.528-1.565-4.221-4.877-4.221-3.129 0-4.877 1.558-5.223 3.951h2.738c.138-.926.874-1.693 2.439-1.693 1.404 0 2.094.609 2.094 1.355 0 .971-1.266 1.219-2.831 1.377-2.116.226-4.739.948-4.739 3.657 0 2.1 1.588 3.454 4.118 3.454 1.979 0 3.221-.813 3.843-2.1.092 1.151.966 1.896 2.186 1.896h1.611v-2.415h-1.358v-5.26h-.001zm-2.716 2.935c0 1.558-1.38 2.709-3.06 2.709-1.036 0-1.91-.429-1.91-1.332 0-1.151 1.404-1.467 2.692-1.602 1.242-.113 1.933-.384 2.278-.903v1.128zm-14.656-7.156c-1.542 0-2.83.632-3.75 1.693v-6.389h-2.761v16.593h2.715v-1.535c.92 1.106 2.232 1.761 3.796 1.761 3.313 0 5.821-2.573 5.821-6.05s-2.553-6.073-5.821-6.073zm-.414 9.617c-1.978 0-3.428-1.513-3.428-3.544s1.473-3.567 3.452-3.567c2.002 0 3.405 1.513 3.405 3.567.001 2.032-1.449 3.544-3.428 3.544zm-12.7-9.617c-1.795 0-2.968.722-3.659 1.738v-1.513h-2.738v11.671h2.761v-6.343c0-1.784 1.15-3.048 2.853-3.048 1.588 0 2.577 1.106 2.577 2.709v6.683h2.761v-6.885c.001-2.936-1.54-5.013-4.554-5.013zm56.208 5.689c0-3.341-2.484-5.689-5.821-5.689-3.543 0-6.143 2.619-6.143 6.072 0 3.635 2.784 6.05 6.189 6.05 2.876 0 5.131-1.671 5.706-4.041h-2.876c-.414 1.038-1.427 1.626-2.785 1.626-1.772 0-3.107-1.084-3.405-2.98h9.134v-1.038h.001zm-8.973-.903c.438-1.626 1.68-2.415 3.107-2.415 1.565 0 2.761.88 3.037 2.415h-6.143z"/></symbol><symbol id="icon-tokocrypto_logo" viewBox="0 0 116 32"><path fill="#007ea4" style="fill:var(--color1,#007ea4)" d="M24.022 22.11h-1.056c-.634 0 1.525 2.98 3.086 3.315.352.069.528.243.528.577v2.183c-.012.416-.258.612-.669.554-2.98-.485-5.151-2.056-6.5-4.724a6.136 6.136 0 0 1-.469-1.19c-.223-.681-.246-.716-.986-.739-.915-.023-1.514-.485-1.713-1.305-.223-.924.516-1.894 1.502-1.952a2.35 2.35 0 0 1 .411 0c.422.035.645-.196.751-.566a8.47 8.47 0 0 1 1.22-2.587c.458-.658.692-.681 1.267-.139.434.416.856.855 1.291 1.27.282.266.352.554.106.878a3.244 3.244 0 0 0-.328.554c-.199.404-.094.577.364.577.798.012 1.584 0 2.393 0 .845.012 1.467.52 1.666 1.351.153.67-.223 1.49-.95 1.756-.422.162-.927.139-1.396.173-.164.023-.34.012-.516.012z"/><path fill="#1aa64a" style="fill:var(--color2,#1aa64a)" d="M27.542 12.12c2.757.115 5.186 1.455 6.852 4.077.575.912.411 1.756-.411 2.252-.88.554-1.865.323-2.417-.554-.833-1.328-2.006-2.171-3.567-2.46a5.215 5.215 0 0 0-3.614.67c-.493.3-.645.266-1.056-.139l-1.314-1.294c-.375-.393-.364-.658.082-.982 1.396-1.005 3.309-1.605 5.444-1.571zm.117 14.968v-1.109a.466.466 0 0 1 .411-.508c1.572-.323 2.734-1.19 3.555-2.529.364-.601.939-.832 1.619-.728.622.092 1.103.404 1.373.982.176.381.153.82-.047 1.19-1.255 2.345-3.567 3.95-6.23 4.331-.458.058-.669-.104-.68-.554-.012-.346 0-.704 0-1.074z"/><path fill="#007ea4" style="fill:var(--color1,#007ea4)" d="M40.612 17.098v7.473h-1.443v-7.473h-2.346v-1.19h6.113v1.19h-2.323zM42.935 21.775a2.44 2.44 0 0 1 .246-1.155c.153-.37.387-.693.68-.97s.634-.497 1.009-.635c.774-.3 1.631-.3 2.405 0 .387.15.727.381 1.009.67.293.277.528.612.68.982.317.739.329 1.571.012 2.31-.153.37-.387.693-.68.97a3.182 3.182 0 0 1-2.253.889c-.411 0-.81-.069-1.197-.219a2.938 2.938 0 0 1-1.009-.658 3.02 3.02 0 0 1-.68-.982 3.758 3.758 0 0 1-.223-1.201zm4.916.023a1.81 1.81 0 0 0-.516-1.328 1.646 1.646 0 0 0-1.255-.531 1.75 1.75 0 0 0-1.255.531 1.944 1.944 0 0 0 0 2.645 1.742 1.742 0 0 0 2.429.081c.023-.023.059-.046.082-.081.352-.358.528-.832.516-1.317zM50.62 24.593v-9.182h1.302v5.89l2.393-2.333h1.607l-2.581 2.472 2.839 3.142h-1.701l-2.569-2.899v2.899h-1.302v.012h.012zM56.31 21.775a2.451 2.451 0 0 1 .246-1.155c.153-.37.387-.693.68-.97s.634-.497 1.009-.635c.774-.3 1.63-.3 2.405 0 .387.15.727.381 1.009.67.293.277.528.612.68.982.317.739.328 1.571.012 2.31-.153.37-.387.693-.68.97a3.182 3.182 0 0 1-2.253.889c-.41 0-.81-.069-1.196-.219a2.92 2.92 0 0 1-1.009-.658 3.02 3.02 0 0 1-.68-.982 3.48 3.48 0 0 1-.223-1.201zm4.904.023a1.807 1.807 0 0 0-.517-1.328 1.646 1.646 0 0 0-1.255-.531 1.75 1.75 0 0 0-1.255.531 1.97 1.97 0 0 0 0 2.645 1.742 1.742 0 0 0 2.429.081c.024-.023.059-.046.082-.081.352-.358.54-.832.517-1.317z"/><path fill="#1aa64a" style="fill:var(--color2,#1aa64a)" d="M68.242 20.574a1.712 1.712 0 0 0-.692-.485 1.981 1.981 0 0 0-.857-.173c-.528 0-.973.162-1.29.508s-.481.785-.481 1.351.164 1.04.481 1.386.774.508 1.349.508c.293.012.587-.058.845-.173.258-.127.481-.312.645-.531v1.49a3.135 3.135 0 0 1-.774.3 3.762 3.762 0 0 1-.88.104c-.891 0-1.619-.289-2.194-.843s-.833-1.294-.833-2.194c0-.901.293-1.64.88-2.183s1.349-.832 2.288-.832c.282 0 .551.023.821.092.246.058.481.15.692.266v1.409zm2.64-.716c.106-.323.294-.601.563-.82a1.35 1.35 0 0 1 .857-.266c.188 0 .364.023.54.058.188.046.364.115.528.196l-.469 1.086a1.045 1.045 0 0 0-.364-.173 1.144 1.144 0 0 0-.434-.058c-.435 0-.739.162-.939.508s-.294.924-.294 1.732v2.472h-1.302v-5.625h1.302v.889h.012z"/><path fill="#1aa64a" style="fill:var(--color2,#1aa64a)" d="M75.106 27.226h-1.35l1.573-3.13-2.1-5.14h1.455l1.044 2.899.165.531c.047.185.082.37.106.566.106-.323.223-.635.376-.936l.035-.069 1.407-2.991h1.42l-4.13 8.27zm4.822 0v-8.258h1.302v.924c.141-.346.399-.635.728-.82.363-.208.774-.3 1.196-.3a2.29 2.29 0 0 1 1.842.832c.469.554.704 1.282.704 2.171 0 .936-.223 1.686-.692 2.229s-1.103.808-1.9.808a2.142 2.142 0 0 1-1.889-.959v3.372h-1.291zm1.267-5.463c0 .577.153 1.04.434 1.398.282.335.716.531 1.162.52.493 0 .88-.162 1.15-.485s.411-.785.411-1.386-.141-1.051-.422-1.386a1.486 1.486 0 0 0-1.162-.508c-.493 0-.88.162-1.15.497s-.423.774-.423 1.351zm6.218 2.83V20.1h-.997v-1.132h.997v-2.125h1.302v2.125h.998V20.1h-.998v4.493h-1.302zm3.015-2.818a2.62 2.62 0 0 1 .246-1.155 2.989 2.989 0 0 1 1.678-1.605c.774-.3 1.631-.3 2.405 0 .387.15.728.381 1.009.67.294.277.528.612.68.982.317.739.329 1.571.012 2.31-.152.37-.387.693-.68.97a3.234 3.234 0 0 1-2.252.889c-.411 0-.81-.069-1.197-.219a2.92 2.92 0 0 1-1.009-.658 3.006 3.006 0 0 1-.68-.982 3.298 3.298 0 0 1-.212-1.201zm4.916.023a1.82 1.82 0 0 0-.528-1.328 1.649 1.649 0 0 0-1.256-.531 1.75 1.75 0 0 0-1.255.531 1.97 1.97 0 0 0 0 2.645 1.742 1.742 0 0 0 2.429.081c.024-.023.059-.046.083-.081.34-.358.528-.832.528-1.317z"/></symbol><symbol id="icon-monitor" viewBox="0 0 32 32"><path fill="#fff" style="fill:var(--color1,#fff)" d="M21.749 4.575a29.052 29.052 0 0 0-11.498 0c-2.378.48-4.292 2.301-4.948 4.708l-.056.205a16.506 16.506 0 0 0 0 8.678l.056.205c.657 2.407 2.57 4.228 4.948 4.708 1.597.322 3.214.509 4.834.56v2.472h-2.136c-.505 0-.915.423-.915.945s.41.945.915.945h6.103c.506 0 .915-.423.915-.945s-.41-.945-.915-.945h-2.136v-2.472a29.113 29.113 0 0 0 4.834-.56c2.378-.48 4.292-2.301 4.948-4.708l.056-.205c.774-2.837.774-5.84 0-8.678l-.056-.205c-.656-2.407-2.57-4.228-4.948-4.708z"/></symbol><symbol id="icon-fire" viewBox="0 0 32 32"><path fill="#ff6d00" style="fill:var(--color1,#ff6d00)" d="M19 0c-6.82 3.929-6 15-6 15s-3-1-3-5.5C6.421 11.575 4 15.565 4 20c0 6.627 5.373 12 12 12s12-5.373 12-12c0-9.75-9-11.75-9-20zm-1.946 27.865a4.5 4.5 0 1 1-2.177-8.733c5.822-1.451 6.551-4.725 6.551-4.725s2.903 11.644-4.374 13.458z"/></symbol><symbol id="icon-heart" viewBox="0 0 32 32"><path fill="none" style="fill:var(--color1,currentColor)" d="M21.92 4.133A7.4 7.4 0 0 0 16 7.106a7.4 7.4 0 0 0-5.92-2.973c-4.093 0-7.413 3.333-7.413 7.453 0 1.587.253 3.053.693 4.413 2.107 6.667 8.6 10.653 11.813 11.747.453.16 1.2.16 1.653 0 3.213-1.093 9.707-5.08 11.813-11.747.44-1.36.693-2.827.693-4.413 0-4.12-3.32-7.453-7.413-7.453z"/></symbol><symbol id="icon-check" viewBox="0 0 32 32"><path fill="#1e50ff" style="fill:var(--color2,#1e50ff)" d="M32 16c0 8.837-7.163 16-16 16S0 24.837 0 16 7.163 0 16 0s16 7.163 16 16z"/><path fill="#adb9c7" style="fill:var(--color3,#adb9c7)" d="M13.883 22.573a.923.923 0 0 1-1.306 0L7.365 17.36a1.384 1.384 0 0 1 0-1.958l.653-.653a1.384 1.384 0 0 1 1.958 0l3.254 3.254 8.792-8.792a1.384 1.384 0 0 1 1.958 0l.653.653a1.384 1.384 0 0 1 0 1.958l-10.75 10.751z"/></symbol><symbol id="icon-double_arrow" viewBox="0 0 32 32"><path fill="#fff" style="fill:var(--color1,#fff)" d="m9.2 12.133 6.36-2.827c.28-.12.6-.12.867 0l6.36 2.827c.56.253 1.08-.427.693-.907l-6.667-8.147c-.453-.56-1.2-.56-1.653 0l-6.667 8.147c-.373.48.147 1.16.707.907zM9.2 19.867l6.373 2.827c.28.12.6.12.867 0l6.373-2.827c.56-.253 1.08.427.693.907l-6.667 8.147c-.453.56-1.2.56-1.653 0l-6.667-8.147c-.4-.48.107-1.16.68-.907zM15.707 12.653 10.2 15.4a.661.661 0 0 0 0 1.187l5.507 2.747a.68.68 0 0 0 .6 0l5.507-2.747a.661.661 0 0 0 0-1.187l-5.507-2.747a.68.68 0 0 0-.6 0z"/></symbol><symbol id="icon-facebook" viewBox="0 0 32 32"><path fill="none" style="fill:var(--color2,currentColor)" d="M30 16c0 7.732-6.268 14-14 14S2 23.732 2 16 8.268 2 16 2s14 6.268 14 14z"/><path fill="#02050e" style="fill:var(--color3,#02050e)" d="m21.214 20.282.622-3.951h-3.89v-2.563c0-1.081.543-2.136 2.285-2.136h1.77V8.268s-1.605-.267-3.14-.267c-3.206 0-5.299 1.893-5.299 5.318v3.012H10v3.951h3.562v9.553c.715.11 1.447.166 2.192.166s1.477-.056 2.192-.166v-9.553h3.268z"/></symbol><symbol id="icon-twitter" viewBox="0 0 32 32"><path fill="none" style="fill:var(--color2,currentColor)" d="M11.789 28A16.26 16.26 0 0 1 3 25.436c2.155.14 5.958-.195 8.324-2.451-3.559-.163-5.163-2.892-5.373-4.059.302.117 1.744.257 2.558-.07-4.093-1.026-4.721-4.619-4.582-5.715.768.537 2.07.723 2.582.676-3.814-2.729-2.442-6.835-1.768-7.721 2.737 3.792 6.84 5.922 11.915 6.041a5.852 5.852 0 0 1-.146-1.305C16.51 7.611 19.113 5 22.324 5a5.79 5.79 0 0 1 4.251 1.853c1.121-.263 2.809-.878 3.634-1.41-.416 1.493-1.71 2.738-2.493 3.2-.006-.016.006.016 0 0 .688-.104 2.549-.462 3.284-.961-.364.839-1.736 2.233-2.862 3.014C28.348 19.938 21.277 28 11.789 28z"/></symbol><symbol id="icon-instagram" viewBox="0 0 32 32"><path style="fill:var(--color1,#000)" d="M8 2h16a6 6 0 0 1 6 6v16a6 6 0 0 1-6 6H8a6 6 0 0 1-6-6V8a6 6 0 0 1 6-6z"/><path fill="none" style="fill:var(--color2,currentColor)" d="M8 2h16a6 6 0 0 1 6 6v16a6 6 0 0 1-6 6H8a6 6 0 0 1-6-6V8a6 6 0 0 1 6-6z"/><path fill="#02050e" style="fill:var(--color3,#02050e)" d="M23 10.5a1.5 1.5 0 1 1-3.001-.001A1.5 1.5 0 0 1 23 10.5zM16 21a5 5 0 1 1 .001-10.001A5 5 0 0 1 16 21zm0-2a3 3 0 1 0 0-6 3 3 0 0 0 0 6z"/><path fill="#02050e" style="fill:var(--color3,#02050e)" d="M6 15.6v.8c0 3.36 0 5.041.654 6.324a5.997 5.997 0 0 0 2.622 2.622C10.559 26 12.24 26 15.6 26h.8c3.36 0 5.04 0 6.324-.654a5.997 5.997 0 0 0 2.622-2.622C26 21.441 26 19.76 26 16.4v-.8c0-3.36 0-5.04-.654-6.324a5.997 5.997 0 0 0-2.622-2.622C21.441 6 19.76 6 16.4 6h-.8c-3.36 0-5.04 0-6.324.654a5.997 5.997 0 0 0-2.622 2.622C6 10.559 6 12.24 6 15.6zM15.6 8h.8c1.713 0 2.878.002 3.778.075.877.072 1.325.201 1.638.361a3.996 3.996 0 0 1 1.748 1.748c.159.313.289.761.361 1.638.073.9.075 2.065.075 3.778v.8c0 1.713-.002 2.878-.075 3.778-.072.877-.201 1.325-.361 1.638a4.001 4.001 0 0 1-1.748 1.748c-.313.159-.761.289-1.638.361-.9.073-2.065.075-3.778.075h-.8c-1.713 0-2.878-.002-3.778-.075-.877-.072-1.325-.201-1.638-.361a3.996 3.996 0 0 1-1.748-1.748c-.159-.313-.289-.761-.361-1.638C8.001 19.278 8 18.113 8 16.4v-.8c0-1.713.002-2.878.075-3.778.072-.877.201-1.325.361-1.638a3.991 3.991 0 0 1 1.748-1.748c.313-.159.761-.289 1.638-.361.9-.074 2.065-.075 3.778-.075z"/></symbol><symbol id="icon-search" viewBox="0 0 32 32"><path fill="none" stroke="#fff" style="stroke:var(--color1,#fff)" stroke-linejoin="round" stroke-linecap="round" stroke-width="4" d="M15.333 28C22.329 28 28 22.329 28 15.333S22.329 2.666 15.333 2.666c-6.996 0-12.667 5.671-12.667 12.667S8.337 28 15.333 28zM29.333 29.333l-2.667-2.667"/></symbol><symbol id="icon-arrow" viewBox="0 0 32 32"><path fill="none" stroke="#fff" style="stroke:var(--color1,#fff)" stroke-linejoin="round" stroke-linecap="round" stroke-miterlimit="10" stroke-width="2" d="m26.56 20.067-8.693-8.693a2.647 2.647 0 0 0-3.733 0l-8.693 8.693"/></symbol><symbol id="icon-check-green" viewBox="0 0 32 32"><path fill="#52b788" style="fill:var(--color1,#52b788)" d="M32 16c0 8.837-7.163 16-16 16S0 24.837 0 16 7.163 0 16 0s16 7.163 16 16z"/><path fill="#fff" style="fill:var(--color2,#fff)" d="M13.884 22.575a.923.923 0 0 1-1.306 0l-5.212-5.213a1.384 1.384 0 0 1 0-1.958l.653-.653a1.384 1.384 0 0 1 1.958 0l3.254 3.254 8.792-8.792a1.384 1.384 0 0 1 1.958 0l.653.653a1.384 1.384 0 0 1 0 1.958l-10.75 10.751z"/></symbol></defs></svg>